# xmcd CD database file
#
# Track frame offsets:
#	150
#	21465
#	37407
#	55671
#	69400
#	87151
#	102690
#	116824
#	127557
#	144634
#	162385
#	176735
#	191355
#	209701
#	222432
#	236351
#	255722
#	277468
#	298054
#	309220
#
# Disc length: 4370 seconds
#
# Revision: 2
# Processed by: cddbd v1.4PL0 Copyright (c) Steve Scherf et al.
# Submitted via: CDex 1.40Beta9
#
DISCID=3e111014
DTITLE=Bee Gees - As 20 Mais de Bee Gees
DYEAR=1900
DGENRE=Blues
TTITLE0=Stayin' Alive
TTITLE1=Night Fever
TTITLE2=More Than a Woman
TTITLE3=To Love Somebody
TTITLE4=Tomorrow Tomorrow
TTITLE5=Don't Forget to Remember
TTITLE6=I Started a Joke
TTITLE7=Massachussets
TTITLE8=It Doens't Matter Much to Me
TTITLE9=How Can You Mend a Broken Heart
TTITLE10=Method to My Madness
TTITLE11=Words
TTITLE12=How Deep is Your Love
TTITLE13=First of May
TTITLE14=Cherry Red
TTITLE15=My World
TTITLE16=Too Much Heaven
TTITLE17=Lamplight
TTITLE18=When the Swallows Fly
TTITLE19=Immortality (Featuring "Celine Dion")
EXTD=0\nMelodia ID3G: 0
EXTT0=
EXTT1=
EXTT2=
EXTT3=
EXTT4=
EXTT5=
EXTT6=
EXTT7=
EXTT8=
EXTT9=
EXTT10=
EXTT11=
EXTT12=
EXTT13=
EXTT14=
EXTT15=
EXTT16=
EXTT17=
EXTT18=
EXTT19=
PLAYORDER=
